<mxfile host="Electron" agent="Mozilla/5.0 (Windows NT 10.0; Win64; x64) AppleWebKit/537.36 (KHTML, like Gecko) draw.io/28.2.5 Chrome/138.0.7204.251 Electron/37.6.1 Safari/537.36" version="28.2.5">
  <diagram id="C5RBs43oDa-KdzZeNtuy" name="Page-1">
    <mxGraphModel dx="2305" dy="1201" grid="1" gridSize="10" guides="1" tooltips="1" connect="1" arrows="1" fold="1" page="1" pageScale="1" pageWidth="827" pageHeight="1169" math="0" shadow="0">
      <root>
        <mxCell id="WIyWlLk6GJQsqaUBKTNV-0" />
        <mxCell id="WIyWlLk6GJQsqaUBKTNV-1" parent="WIyWlLk6GJQsqaUBKTNV-0" />
        <mxCell id="UMhONBxiJK_mPaSgbeVS-3" style="edgeStyle=orthogonalEdgeStyle;rounded=0;orthogonalLoop=1;jettySize=auto;html=1;" parent="WIyWlLk6GJQsqaUBKTNV-1" source="UMhONBxiJK_mPaSgbeVS-0" target="UMhONBxiJK_mPaSgbeVS-1" edge="1">
          <mxGeometry relative="1" as="geometry" />
        </mxCell>
        <mxCell id="UMhONBxiJK_mPaSgbeVS-0" value="Algus" style="ellipse;whiteSpace=wrap;html=1;" parent="WIyWlLk6GJQsqaUBKTNV-1" vertex="1">
          <mxGeometry x="260" y="180" width="120" height="50" as="geometry" />
        </mxCell>
        <mxCell id="UMhONBxiJK_mPaSgbeVS-5" style="edgeStyle=orthogonalEdgeStyle;rounded=0;orthogonalLoop=1;jettySize=auto;html=1;" parent="WIyWlLk6GJQsqaUBKTNV-1" source="UMhONBxiJK_mPaSgbeVS-1" target="UMhONBxiJK_mPaSgbeVS-4" edge="1">
          <mxGeometry relative="1" as="geometry" />
        </mxCell>
        <mxCell id="UMhONBxiJK_mPaSgbeVS-1" value="Kuva kasutajale tekst &quot;Tere telumast mobifix parandusatomaati&quot; Kuidas saan aidata&quot;" style="shape=parallelogram;perimeter=parallelogramPerimeter;whiteSpace=wrap;html=1;fixedSize=1;" parent="WIyWlLk6GJQsqaUBKTNV-1" vertex="1">
          <mxGeometry x="180" y="280" width="280" height="60" as="geometry" />
        </mxCell>
        <mxCell id="UMhONBxiJK_mPaSgbeVS-7" style="edgeStyle=orthogonalEdgeStyle;rounded=0;orthogonalLoop=1;jettySize=auto;html=1;" parent="WIyWlLk6GJQsqaUBKTNV-1" source="UMhONBxiJK_mPaSgbeVS-4" target="UMhONBxiJK_mPaSgbeVS-6" edge="1">
          <mxGeometry relative="1" as="geometry" />
        </mxCell>
        <mxCell id="UMhONBxiJK_mPaSgbeVS-11" style="edgeStyle=orthogonalEdgeStyle;rounded=0;orthogonalLoop=1;jettySize=auto;html=1;" parent="WIyWlLk6GJQsqaUBKTNV-1" source="UMhONBxiJK_mPaSgbeVS-4" target="UMhONBxiJK_mPaSgbeVS-10" edge="1">
          <mxGeometry relative="1" as="geometry" />
        </mxCell>
        <mxCell id="UMhONBxiJK_mPaSgbeVS-4" value="Ootame kui kasutaja sisetab täisarvu &quot;palun tee valik, kitjtades vastav arv&quot;" style="rounded=0;whiteSpace=wrap;html=1;" parent="WIyWlLk6GJQsqaUBKTNV-1" vertex="1">
          <mxGeometry x="260" y="390" width="120" height="60" as="geometry" />
        </mxCell>
        <mxCell id="UMhONBxiJK_mPaSgbeVS-45" style="edgeStyle=orthogonalEdgeStyle;rounded=0;orthogonalLoop=1;jettySize=auto;html=1;" parent="WIyWlLk6GJQsqaUBKTNV-1" source="UMhONBxiJK_mPaSgbeVS-6" target="UMhONBxiJK_mPaSgbeVS-40" edge="1">
          <mxGeometry relative="1" as="geometry">
            <Array as="points">
              <mxPoint x="200" y="1280" />
            </Array>
          </mxGeometry>
        </mxCell>
        <mxCell id="UMhONBxiJK_mPaSgbeVS-6" value="kui inimene kirjutas 0&lt;div&gt;&quot;headaega, telga teinekord jälle&quot;&lt;/div&gt;" style="shape=parallelogram;perimeter=parallelogramPerimeter;whiteSpace=wrap;html=1;fixedSize=1;" parent="WIyWlLk6GJQsqaUBKTNV-1" vertex="1">
          <mxGeometry x="140" y="525" width="120" height="60" as="geometry" />
        </mxCell>
        <mxCell id="kusQKShbjJkgMwPIXccp-5" style="edgeStyle=orthogonalEdgeStyle;rounded=0;orthogonalLoop=1;jettySize=auto;html=1;" edge="1" parent="WIyWlLk6GJQsqaUBKTNV-1" source="UMhONBxiJK_mPaSgbeVS-10" target="kusQKShbjJkgMwPIXccp-0">
          <mxGeometry relative="1" as="geometry" />
        </mxCell>
        <mxCell id="UMhONBxiJK_mPaSgbeVS-10" value="kui inimene valis 1.&lt;div&gt;&quot;Palun sisesta oma telefoni mudel, mida parandada soovid&quot;&lt;/div&gt;" style="shape=parallelogram;perimeter=parallelogramPerimeter;whiteSpace=wrap;html=1;fixedSize=1;" parent="WIyWlLk6GJQsqaUBKTNV-1" vertex="1">
          <mxGeometry x="331" y="525" width="199" height="51" as="geometry" />
        </mxCell>
        <mxCell id="UMhONBxiJK_mPaSgbeVS-47" style="edgeStyle=orthogonalEdgeStyle;rounded=0;orthogonalLoop=1;jettySize=auto;html=1;entryX=1;entryY=0.5;entryDx=0;entryDy=0;exitX=1;exitY=0.5;exitDx=0;exitDy=0;" parent="WIyWlLk6GJQsqaUBKTNV-1" source="UMhONBxiJK_mPaSgbeVS-23" target="UMhONBxiJK_mPaSgbeVS-40" edge="1">
          <mxGeometry relative="1" as="geometry">
            <Array as="points">
              <mxPoint x="750" y="660" />
              <mxPoint x="750" y="1280" />
            </Array>
          </mxGeometry>
        </mxCell>
        <mxCell id="UMhONBxiJK_mPaSgbeVS-23" value="Nad kirjutavad talle, millise variandi ta valis &quot;Äitab, oma iFööni saad tagasi 1 nänala pärast&quot;" style="shape=parallelogram;perimeter=parallelogramPerimeter;whiteSpace=wrap;html=1;fixedSize=1;" parent="WIyWlLk6GJQsqaUBKTNV-1" vertex="1">
          <mxGeometry x="560" y="630" width="190" height="60" as="geometry" />
        </mxCell>
        <mxCell id="UMhONBxiJK_mPaSgbeVS-46" style="edgeStyle=orthogonalEdgeStyle;rounded=0;orthogonalLoop=1;jettySize=auto;html=1;" parent="WIyWlLk6GJQsqaUBKTNV-1" source="UMhONBxiJK_mPaSgbeVS-27" target="UMhONBxiJK_mPaSgbeVS-40" edge="1">
          <mxGeometry relative="1" as="geometry">
            <Array as="points">
              <mxPoint x="750" y="770" />
              <mxPoint x="750" y="1280" />
            </Array>
          </mxGeometry>
        </mxCell>
        <mxCell id="UMhONBxiJK_mPaSgbeVS-27" value="Nad kirjutavad talle, millise variandi ta valis &quot;Aitab, sisu xiaomjäu on valmis 2 kuu pärast&quot;" style="shape=parallelogram;perimeter=parallelogramPerimeter;whiteSpace=wrap;html=1;fixedSize=1;" parent="WIyWlLk6GJQsqaUBKTNV-1" vertex="1">
          <mxGeometry x="550" y="740" width="190" height="60" as="geometry" />
        </mxCell>
        <mxCell id="UMhONBxiJK_mPaSgbeVS-43" style="edgeStyle=orthogonalEdgeStyle;rounded=0;orthogonalLoop=1;jettySize=auto;html=1;entryX=1;entryY=0.5;entryDx=0;entryDy=0;" parent="WIyWlLk6GJQsqaUBKTNV-1" source="UMhONBxiJK_mPaSgbeVS-28" target="UMhONBxiJK_mPaSgbeVS-40" edge="1">
          <mxGeometry relative="1" as="geometry">
            <Array as="points">
              <mxPoint x="750" y="890" />
              <mxPoint x="750" y="1280" />
            </Array>
          </mxGeometry>
        </mxCell>
        <mxCell id="UMhONBxiJK_mPaSgbeVS-28" value="Nad kirjutavad talle, millise variandi ta valis &quot;Kahjuks me nihuaweid ei teeninda&quot;" style="shape=parallelogram;perimeter=parallelogramPerimeter;whiteSpace=wrap;html=1;fixedSize=1;" parent="WIyWlLk6GJQsqaUBKTNV-1" vertex="1">
          <mxGeometry x="535" y="860" width="200" height="60" as="geometry" />
        </mxCell>
        <mxCell id="UMhONBxiJK_mPaSgbeVS-42" style="edgeStyle=orthogonalEdgeStyle;rounded=0;orthogonalLoop=1;jettySize=auto;html=1;" parent="WIyWlLk6GJQsqaUBKTNV-1" source="UMhONBxiJK_mPaSgbeVS-29" target="UMhONBxiJK_mPaSgbeVS-40" edge="1">
          <mxGeometry relative="1" as="geometry">
            <Array as="points">
              <mxPoint x="750" y="1000" />
              <mxPoint x="750" y="1280" />
            </Array>
          </mxGeometry>
        </mxCell>
        <mxCell id="UMhONBxiJK_mPaSgbeVS-29" value="Nad kirjutavad talle, millise variandi ta valis &quot;Sisu Scamsug on valmis 2 päeva pärast&quot;" style="shape=parallelogram;perimeter=parallelogramPerimeter;whiteSpace=wrap;html=1;fixedSize=1;" parent="WIyWlLk6GJQsqaUBKTNV-1" vertex="1">
          <mxGeometry x="540" y="970" width="190" height="60" as="geometry" />
        </mxCell>
        <mxCell id="UMhONBxiJK_mPaSgbeVS-40" value="Lõpp" style="ellipse;whiteSpace=wrap;html=1;" parent="WIyWlLk6GJQsqaUBKTNV-1" vertex="1">
          <mxGeometry x="230.5" y="1240" width="120" height="80" as="geometry" />
        </mxCell>
        <mxCell id="kusQKShbjJkgMwPIXccp-4" style="edgeStyle=orthogonalEdgeStyle;rounded=0;orthogonalLoop=1;jettySize=auto;html=1;entryX=0;entryY=0.5;entryDx=0;entryDy=0;" edge="1" parent="WIyWlLk6GJQsqaUBKTNV-1" source="kusQKShbjJkgMwPIXccp-0" target="UMhONBxiJK_mPaSgbeVS-23">
          <mxGeometry relative="1" as="geometry" />
        </mxCell>
        <mxCell id="kusQKShbjJkgMwPIXccp-14" value="JAH" style="edgeLabel;html=1;align=center;verticalAlign=middle;resizable=0;points=[];" vertex="1" connectable="0" parent="kusQKShbjJkgMwPIXccp-4">
          <mxGeometry x="-0.1658" y="-1" relative="1" as="geometry">
            <mxPoint as="offset" />
          </mxGeometry>
        </mxCell>
        <mxCell id="kusQKShbjJkgMwPIXccp-7" value="EI" style="edgeStyle=orthogonalEdgeStyle;rounded=0;orthogonalLoop=1;jettySize=auto;html=1;" edge="1" parent="WIyWlLk6GJQsqaUBKTNV-1" source="kusQKShbjJkgMwPIXccp-0" target="kusQKShbjJkgMwPIXccp-3">
          <mxGeometry relative="1" as="geometry" />
        </mxCell>
        <mxCell id="kusQKShbjJkgMwPIXccp-0" value="&#xa;&lt;span style=&quot;color: rgb(0, 0, 0); font-family: Helvetica; font-size: 12px; font-style: normal; font-variant-ligatures: normal; font-variant-caps: normal; font-weight: 400; letter-spacing: normal; orphans: 2; text-align: center; text-indent: 0px; text-transform: none; widows: 2; word-spacing: 0px; -webkit-text-stroke-width: 0px; white-space: normal; background-color: rgb(236, 236, 236); text-decoration-thickness: initial; text-decoration-style: initial; text-decoration-color: initial; display: inline !important; float: none;&quot;&gt;Kui kasutaja valib suvandi &quot;1&quot;&lt;/span&gt;&#xa;&#xa;" style="rhombus;whiteSpace=wrap;html=1;direction=south;" vertex="1" parent="WIyWlLk6GJQsqaUBKTNV-1">
          <mxGeometry x="390.5" y="620" width="80" height="80" as="geometry" />
        </mxCell>
        <mxCell id="kusQKShbjJkgMwPIXccp-10" value="JAH" style="edgeStyle=orthogonalEdgeStyle;rounded=0;orthogonalLoop=1;jettySize=auto;html=1;" edge="1" parent="WIyWlLk6GJQsqaUBKTNV-1" source="kusQKShbjJkgMwPIXccp-1" target="UMhONBxiJK_mPaSgbeVS-29">
          <mxGeometry relative="1" as="geometry" />
        </mxCell>
        <mxCell id="kusQKShbjJkgMwPIXccp-17" style="edgeStyle=orthogonalEdgeStyle;rounded=0;orthogonalLoop=1;jettySize=auto;html=1;" edge="1" parent="WIyWlLk6GJQsqaUBKTNV-1" source="kusQKShbjJkgMwPIXccp-1" target="kusQKShbjJkgMwPIXccp-16">
          <mxGeometry relative="1" as="geometry" />
        </mxCell>
        <mxCell id="kusQKShbjJkgMwPIXccp-1" value="&#xa;&lt;span style=&quot;color: rgb(0, 0, 0); font-family: Helvetica; font-size: 12px; font-style: normal; font-variant-ligatures: normal; font-variant-caps: normal; font-weight: 400; letter-spacing: normal; orphans: 2; text-align: center; text-indent: 0px; text-transform: none; widows: 2; word-spacing: 0px; -webkit-text-stroke-width: 0px; white-space: normal; background-color: rgb(236, 236, 236); text-decoration-thickness: initial; text-decoration-style: initial; text-decoration-color: initial; display: inline !important; float: none;&quot;&gt;Kui kasutaja valib suvandi &quot;4&quot;&lt;/span&gt;&#xa;&#xa;" style="rhombus;whiteSpace=wrap;html=1;" vertex="1" parent="WIyWlLk6GJQsqaUBKTNV-1">
          <mxGeometry x="390.5" y="960" width="80" height="80" as="geometry" />
        </mxCell>
        <mxCell id="kusQKShbjJkgMwPIXccp-8" style="edgeStyle=orthogonalEdgeStyle;rounded=0;orthogonalLoop=1;jettySize=auto;html=1;" edge="1" parent="WIyWlLk6GJQsqaUBKTNV-1" source="kusQKShbjJkgMwPIXccp-2" target="UMhONBxiJK_mPaSgbeVS-28">
          <mxGeometry relative="1" as="geometry" />
        </mxCell>
        <mxCell id="kusQKShbjJkgMwPIXccp-13" value="JAH" style="edgeLabel;html=1;align=center;verticalAlign=middle;resizable=0;points=[];" vertex="1" connectable="0" parent="kusQKShbjJkgMwPIXccp-8">
          <mxGeometry x="-0.3082" y="-1" relative="1" as="geometry">
            <mxPoint x="1" as="offset" />
          </mxGeometry>
        </mxCell>
        <mxCell id="kusQKShbjJkgMwPIXccp-11" value="EI" style="edgeStyle=orthogonalEdgeStyle;rounded=0;orthogonalLoop=1;jettySize=auto;html=1;" edge="1" parent="WIyWlLk6GJQsqaUBKTNV-1" source="kusQKShbjJkgMwPIXccp-2" target="kusQKShbjJkgMwPIXccp-1">
          <mxGeometry relative="1" as="geometry" />
        </mxCell>
        <mxCell id="kusQKShbjJkgMwPIXccp-2" value="&#xa;&lt;span style=&quot;color: rgb(0, 0, 0); font-family: Helvetica; font-size: 12px; font-style: normal; font-variant-ligatures: normal; font-variant-caps: normal; font-weight: 400; letter-spacing: normal; orphans: 2; text-align: center; text-indent: 0px; text-transform: none; widows: 2; word-spacing: 0px; -webkit-text-stroke-width: 0px; white-space: normal; background-color: rgb(236, 236, 236); text-decoration-thickness: initial; text-decoration-style: initial; text-decoration-color: initial; display: inline !important; float: none;&quot;&gt;Kui kasutaja valib suvandi &quot;3&quot;&lt;/span&gt;&#xa;&#xa;" style="rhombus;whiteSpace=wrap;html=1;" vertex="1" parent="WIyWlLk6GJQsqaUBKTNV-1">
          <mxGeometry x="390.25" y="850" width="80" height="80" as="geometry" />
        </mxCell>
        <mxCell id="kusQKShbjJkgMwPIXccp-6" value="JAH" style="edgeStyle=orthogonalEdgeStyle;rounded=0;orthogonalLoop=1;jettySize=auto;html=1;" edge="1" parent="WIyWlLk6GJQsqaUBKTNV-1" source="kusQKShbjJkgMwPIXccp-3" target="UMhONBxiJK_mPaSgbeVS-27">
          <mxGeometry relative="1" as="geometry" />
        </mxCell>
        <mxCell id="kusQKShbjJkgMwPIXccp-9" value="EI" style="edgeStyle=orthogonalEdgeStyle;rounded=0;orthogonalLoop=1;jettySize=auto;html=1;" edge="1" parent="WIyWlLk6GJQsqaUBKTNV-1" source="kusQKShbjJkgMwPIXccp-3" target="kusQKShbjJkgMwPIXccp-2">
          <mxGeometry relative="1" as="geometry" />
        </mxCell>
        <mxCell id="kusQKShbjJkgMwPIXccp-3" value="&#xa;&lt;span style=&quot;color: rgb(0, 0, 0); font-family: Helvetica; font-size: 12px; font-style: normal; font-variant-ligatures: normal; font-variant-caps: normal; font-weight: 400; letter-spacing: normal; orphans: 2; text-align: center; text-indent: 0px; text-transform: none; widows: 2; word-spacing: 0px; -webkit-text-stroke-width: 0px; white-space: normal; background-color: rgb(236, 236, 236); text-decoration-thickness: initial; text-decoration-style: initial; text-decoration-color: initial; display: inline !important; float: none;&quot;&gt;Kui kasutaja valib suvandi &quot;2&quot;&lt;/span&gt;&#xa;&#xa;" style="rhombus;whiteSpace=wrap;html=1;" vertex="1" parent="WIyWlLk6GJQsqaUBKTNV-1">
          <mxGeometry x="390.25" y="730" width="80" height="80" as="geometry" />
        </mxCell>
        <mxCell id="kusQKShbjJkgMwPIXccp-18" style="edgeStyle=orthogonalEdgeStyle;rounded=0;orthogonalLoop=1;jettySize=auto;html=1;" edge="1" parent="WIyWlLk6GJQsqaUBKTNV-1" source="kusQKShbjJkgMwPIXccp-16" target="UMhONBxiJK_mPaSgbeVS-40">
          <mxGeometry relative="1" as="geometry">
            <Array as="points">
              <mxPoint x="430" y="1280" />
            </Array>
          </mxGeometry>
        </mxCell>
        <mxCell id="kusQKShbjJkgMwPIXccp-16" value="&#xa;&lt;span style=&quot;color: rgb(0, 0, 0); font-family: Helvetica; font-size: 12px; font-style: normal; font-variant-ligatures: normal; font-variant-caps: normal; font-weight: 400; letter-spacing: normal; orphans: 2; text-align: center; text-indent: 0px; text-transform: none; widows: 2; word-spacing: 0px; -webkit-text-stroke-width: 0px; white-space: normal; background-color: rgb(236, 236, 236); text-decoration-thickness: initial; text-decoration-style: initial; text-decoration-color: initial; display: inline !important; float: none;&quot;&gt;Kui kasutaja pole pakutavat valikut valinud, kirjutatakse talle &quot;Ei tuune sellist relefonitootjat&quot;&lt;/span&gt;&#xa;&#xa;" style="rhombus;whiteSpace=wrap;html=1;" vertex="1" parent="WIyWlLk6GJQsqaUBKTNV-1">
          <mxGeometry x="325" y="1080" width="210" height="80" as="geometry" />
        </mxCell>
      </root>
    </mxGraphModel>
  </diagram>
</mxfile>
